# xmcd
#
# Track frame offsets:
#	150
#	23094
#	44030
#	61492
#	83827
#	102354
#	122517
#	145582
#	167300
#	185457
#	205145
#	230165
#
# Disc length: 3388 seconds
#
# Revision: 0
# Processed by: cddbd v1.5.2PL0 Copyright (c) Steve Scherf et al.
# Submitted via: FairStars CD Ripper 1.90
#
DISCID=9e0d3a0c
DTITLE=Huong Lan - Xuan di le chua
DYEAR=1998
DGENRE=Vocal
TTITLE0=Duy Khanh - Xuan nay con khong ve 
TTITLE1=Mua xuan dau tien
TTITLE2=Ngoc Lan - Canh thiep dau xuan
TTITLE3=Duy Khanh - Thu xuan tren rung cao
TTITLE4=Khanh Ly - Anh cho em Mua Xuan
TTITLE5=Ngoc Minh - Mua xuan goi em
TTITLE6=Toi chua co mua xuan
TTITLE7=Tuan Vu - Thu xuan
TTITLE8=Thanh tuyen - Phut giao thua
TTITLE9=Ngoc Trong - Tinh xuan cho que huong
TTITLE10=Giao Linh - Cau chuyen dau nam
TTITLE11=Carol Kim - Mua xuan tren cao
EXTD=
EXTT0=
EXTT1=
EXTT2=
EXTT3=
EXTT4=
EXTT5=
EXTT6=
EXTT7=
EXTT8=
EXTT9=
EXTT10=
EXTT11=
PLAYORDER=
